<svg xmlns="http://www.w3.org/2000/svg" viewBox="0 0 512 512">
  <circle cx="256" cy="256" r="240" fill="#f5f5f0" stroke="#333" stroke-width="12"/>
  <path d="M160 60 C120 120, 100 190, 100 256 C100 322, 120 392, 160 452" fill="none" stroke="#cc0000" stroke-width="10" stroke-linecap="round"/>
  <path d="M352 60 C392 120, 412 190, 412 256 C412 322, 392 392, 352 452" fill="none" stroke="#cc0000" stroke-width="10" stroke-linecap="round"/>
  <!-- Left stitches -->
  <line x1="148" y1="95" x2="120" y2="115" stroke="#cc0000" stroke-width="5" stroke-linecap="round"/>
  <line x1="132" y1="135" x2="108" y2="155" stroke="#cc0000" stroke-width="5" stroke-linecap="round"/>
  <line x1="118" y1="180" x2="100" y2="200" stroke="#cc0000" stroke-width="5" stroke-linecap="round"/>
  <line x1="112" y1="225" x2="96" y2="248" stroke="#cc0000" stroke-width="5" stroke-linecap="round"/>
  <line x1="112" y1="275" x2="96" y2="260" stroke="#cc0000" stroke-width="5" stroke-linecap="round"/>
  <line x1="118" y1="325" x2="100" y2="310" stroke="#cc0000" stroke-width="5" stroke-linecap="round"/>
  <line x1="132" y1="370" x2="108" y2="350" stroke="#cc0000" stroke-width="5" stroke-linecap="round"/>
  <line x1="148" y1="410" x2="120" y2="390" stroke="#cc0000" stroke-width="5" stroke-linecap="round"/>
  <!-- Right stitches -->
  <line x1="364" y1="95" x2="392" y2="115" stroke="#cc0000" stroke-width="5" stroke-linecap="round"/>
  <line x1="380" y1="135" x2="404" y2="155" stroke="#cc0000" stroke-width="5" stroke-linecap="round"/>
  <line x1="394" y1="180" x2="412" y2="200" stroke="#cc0000" stroke-width="5" stroke-linecap="round"/>
  <line x1="400" y1="225" x2="416" y2="248" stroke="#cc0000" stroke-width="5" stroke-linecap="round"/>
  <line x1="400" y1="275" x2="416" y2="260" stroke="#cc0000" stroke-width="5" stroke-linecap="round"/>
  <line x1="394" y1="325" x2="412" y2="310" stroke="#cc0000" stroke-width="5" stroke-linecap="round"/>
  <line x1="380" y1="370" x2="404" y2="350" stroke="#cc0000" stroke-width="5" stroke-linecap="round"/>
  <line x1="364" y1="410" x2="392" y2="390" stroke="#cc0000" stroke-width="5" stroke-linecap="round"/>
</svg>
